<?xml version="1.0" encoding="UTF-8"?>
<svg width="45px" height="36px" viewBox="0 0 45 36" version="1.1" xmlns="http://www.w3.org/2000/svg" xmlns:xlink="http://www.w3.org/1999/xlink">
    <title>magic-hand</title>
    <g id="webpages" stroke="none" stroke-width="1" fill="none" fill-rule="evenodd">
        <g id="Mobile-Copy" transform="translate(-61.000000, -439.000000)" fill="#1A1A1A" fill-rule="nonzero">
            <path d="M92.9077227,475.000326 C94.31445,474.99703 96.0438312,474.015473 96.7678972,472.809383 L94.6254997,471.916403 C94.2624024,472.370823 93.4956958,472.744358 92.9140398,472.750332 L80.2163467,472.750332 C79.5506455,472.748066 78.7093007,472.297627 78.3383071,471.744879 L70.308625,459.658162 C70.1398479,459.417973 70.0027938,458.984701 70.0027938,458.691092 C70.0027938,458.205978 70.3259971,457.58745 70.7241818,457.310457 C71.8344163,456.529263 72.8335518,457.38077 73.0719546,457.724572 L75.7304336,461.549591 C75.8229932,461.684036 76.0305657,461.793212 76.1938496,461.793212 C76.5043499,461.793212 76.7563482,461.541214 76.7563482,461.230713 L76.7562796,445.187897 C76.7562796,444.256396 77.5122745,443.500401 78.4437755,443.500401 C79.3752766,443.500401 80.1312715,444.256396 80.1312715,445.187897 L80.1312715,456.43787 C80.1312715,456.748371 80.3832698,457.000369 80.6937702,457.000369 L81.552281,457.000369 C81.6997035,456.951274 81.9447667,456.89902 82.0993302,456.88364 C82.2582196,456.784488 82.3805795,456.638233 82.3805795,456.43787 L82.3805795,442.937903 C82.3805795,442.006402 83.1365744,441.250407 84.0680755,441.250407 C84.9995766,441.250407 85.7555715,442.006402 85.7555715,442.937903 L85.7555715,456.43787 C85.7555715,456.748371 86.0075698,457.000369 86.3180701,457.000369 L87.4430674,457.000369 C87.7535678,457.000369 88.0055661,456.748371 88.0055661,456.43787 L88.0055661,445.187897 C88.0055661,444.256396 88.761561,443.500401 89.6930621,443.500401 C90.6245632,443.500401 91.3805581,444.256396 91.3805581,445.187897 L91.3805581,456.43787 C91.3805581,456.748371 91.6325564,457.000369 91.9430567,457.000369 L93.068054,457.000369 C93.3785544,457.000369 93.6305527,456.748371 93.6305527,456.43787 L93.6305527,450.812884 C93.6305527,449.881383 94.3865476,449.125388 95.3180487,449.125388 C96.2495497,449.125388 97.0055446,449.881383 97.0055446,450.812884 L97.0055446,459.271444 C97.0052013,460.501841 96.8099198,462.479718 96.5695945,463.686358 L96.1287691,465.895566 L96.7791582,465.624204 L97.8781317,462.988178 L97.9069707,462.917866 L97.9399983,462.851056 C98.1640502,462.421079 98.6973665,461.894973 99.1303641,461.676826 C99.2077489,460.878808 99.2492222,460.07722 99.2492222,459.277761 L99.2492222,450.805125 C99.2492222,448.635948 97.4886673,446.875393 95.3194906,446.875393 L95.306925,446.875393 C94.8204379,446.875393 94.0693868,447.045818 93.6305527,447.255794 L93.6305527,445.187897 C93.6295914,443.015356 91.8656033,441.252192 89.6930621,441.252192 C89.1415497,441.252192 88.3004796,441.465601 87.8157091,441.728517 C87.3297712,440.222363 85.6509956,439 84.0684188,439 C82.485842,439 80.8070664,440.222363 80.3211286,441.728517 C79.836358,441.465601 78.9952879,441.252192 78.4437755,441.252192 C76.2712343,441.252192 74.5072462,443.015356 74.5062849,445.187897 L74.5062849,455.931608 C73.6976931,455.101936 71.5468499,453.983256 69.4374799,455.459815 C68.5103733,456.109929 67.757949,457.556551 67.757949,458.688895 C67.757949,459.372792 68.0753844,460.38312 68.4664968,460.944177 L76.460954,472.990108 C77.1964183,474.099724 78.8736833,475.000326 80.2049484,475.000326 L92.9077227,475.000326 Z M66.6221713,454.5943 C66.782434,454.5943 66.9701625,454.477708 67.0412301,454.334131 L68.4960225,450.845225 L68.4995244,450.845225 L68.5058415,450.841723 L71.9898038,449.389059 C72.1250727,449.311812 72.2409781,449.122779 72.2485999,448.967185 C72.2413215,448.811386 72.125416,448.622353 71.9898038,448.545311 L68.5044682,447.091961 L68.4995244,447.091961 L67.0468606,443.604496 C66.9757929,443.460851 66.7880645,443.344258 66.6278018,443.344258 C66.4675391,443.344258 66.2798107,443.460851 66.2087431,443.604496 L64.7532641,447.094089 L64.7497622,447.094089 L61.2601694,448.550255 C61.1245572,448.627296 61.0086517,448.816329 61.0013733,448.972129 L61,448.972129 C61.0075531,449.127722 61.1234586,449.316687 61.2587274,449.394003 L64.7441317,450.847353 L64.7490755,450.847353 L66.2031126,454.334131 C66.2741802,454.477708 66.4619087,454.5943 66.6221713,454.5943 Z M82.3746057,465.843243 C82.4703925,465.843243 82.5830021,465.773755 82.625986,465.688131 L83.4999464,463.594279 L85.5945535,462.721005 C85.680178,462.678021 85.7496663,462.565412 85.7496663,462.469625 C85.7496663,462.373838 85.680178,462.261228 85.5945535,462.218245 L83.4999464,461.344971 L82.6266727,459.250364 C82.5836888,459.164739 82.4710792,459.095251 82.3752924,459.095251 C82.2795055,459.095251 82.1668959,459.164739 82.123912,459.250364 L81.2499517,461.344971 L79.1553446,462.218245 C79.0697201,462.261228 79.0002317,462.373838 79.0002317,462.469625 C79.0002317,462.565412 79.0697201,462.678021 79.1553446,462.721005 L81.2499517,463.594279 L82.1232254,465.688131 C82.1662093,465.773755 82.2788189,465.843243 82.3746057,465.843243 Z M100.372091,474.844252 C100.532354,474.844252 100.720082,474.72766 100.79115,474.584083 L102.245942,471.095176 L102.252259,471.095176 L105.736221,469.642513 C105.87149,469.565265 105.987396,469.376232 105.994949,469.220639 L105.999893,469.219265 C105.992683,469.063466 105.876777,468.874433 105.741165,468.797391 L102.255761,467.344041 L102.250817,467.344041 L100.79678,463.854448 C100.725712,463.710802 100.537984,463.59421 100.377721,463.59421 C100.217459,463.59421 100.02973,463.710802 99.9586626,463.854448 L98.5031836,467.344041 L98.4996817,467.344041 L95.0100889,468.800207 C94.8744767,468.877248 94.7585712,469.066281 94.7512928,469.222081 C94.7589146,469.377674 94.8748201,469.566639 95.0100889,469.643955 L98.4954245,471.097305 L98.5003684,471.097305 L99.9530321,474.584083 C100.0241,474.72766 100.211828,474.844252 100.372091,474.844252 Z" id="magic-hand"></path>
        </g>
    </g>
</svg>