<?xml version="1.0" encoding="UTF-8"?>
<svg width="41px" height="36px" viewBox="0 0 41 36" version="1.1" xmlns="http://www.w3.org/2000/svg" xmlns:xlink="http://www.w3.org/1999/xlink">
    <title>books</title>
    <g id="webpages" stroke="none" stroke-width="1" fill="none" fill-rule="evenodd">
        <g id="Mobile-Copy" transform="translate(-141.000000, -439.000000)" fill="#1A1A1A" fill-rule="nonzero">
            <path d="M150.499979,475.000326 C150.919037,475.000326 151.288864,474.854758 151.624976,474.655768 C151.961088,474.855513 152.330914,475.000326 152.749973,475.000326 L159.499957,475.000326 C160.742371,475.000326 161.749952,473.992745 161.749952,472.750332 L161.749952,447.359134 L172.397326,474.436454 C172.519,474.782385 172.847353,475.000326 173.195412,475.000326 C173.406349,475.000326 173.544159,474.927885 174.003249,474.767623 C174.456091,474.60942 174.694425,474.188919 174.444143,473.475221 C175.601481,472.793933 178.603145,471.781408 179.752724,471.617575 C180.009392,472.348851 180.46498,472.507054 180.904432,472.353039 L181.435276,472.16744 C181.873355,472.013425 182.106059,471.529685 181.9528,471.093048 L169.554621,439.564284 C169.433703,439.218353 169.10535,439.000412 168.756603,439.000412 C168.544911,439.000412 168.407101,439.072853 167.948698,439.233116 C167.494483,439.392074 167.258209,439.812506 167.507804,440.525517 C166.350466,441.206805 163.348871,442.21933 162.199223,442.383163 C162.105702,442.117363 162.060727,441.917687 161.749265,441.734147 L161.749265,441.250407 C161.749265,440.007993 160.741684,439.000412 159.49927,439.000412 L152.749287,439.000412 C152.330228,439.000412 151.960333,439.14598 151.624289,439.34497 C151.288864,439.14598 150.919037,439.000412 150.499979,439.000412 L143.749995,439.000412 C142.507581,439.000412 141.5,440.007993 141.5,441.250407 L141.5,472.750332 C141.5,473.992745 142.507581,475.000326 143.749995,475.000326 L150.499979,475.000326 Z M150.499979,445.750396 L143.749995,445.750396 L143.749995,441.250407 L150.499979,441.250407 L150.499979,445.750396 Z M159.499957,445.750396 L152.749973,445.750396 L152.749973,441.250407 L159.499957,441.250407 L159.499957,445.750396 Z M173.783935,471.592993 L162.860186,444.265391 C164.633444,443.932094 167.360862,442.835936 168.168767,442.407745 L179.092516,469.73466 C177.318503,470.068644 174.591771,471.164116 173.783935,471.592993 Z M150.499979,466.000348 L143.749995,466.000348 L143.749995,448.000391 L150.499979,448.000391 L150.499979,466.000348 Z M159.499957,466.000348 L152.749973,466.000348 L152.749973,448.000391 L159.499957,448.000391 L159.499957,466.000348 Z M150.499979,472.750332 L143.749995,472.750332 L143.749995,468.250342 L150.499979,468.250342 L150.499979,472.750332 Z M159.499957,472.750332 L152.749973,472.750332 L152.749973,468.250342 L159.499957,468.250342 L159.499957,472.750332 Z" id="books"></path>
        </g>
    </g>
</svg>