<?xml version="1.0" encoding="UTF-8"?>
<svg width="36px" height="32px" viewBox="0 0 36 32" version="1.1" xmlns="http://www.w3.org/2000/svg" xmlns:xlink="http://www.w3.org/1999/xlink">
    <title>drum</title>
    <g id="webpages" stroke="none" stroke-width="1" fill="none" fill-rule="evenodd">
        <g id="Mobile-Copy" transform="translate(-65.000000, -551.000000)" fill="#1A1A1A" fill-rule="nonzero">
            <path d="M82.9999571,582.750332 C92.9407064,582.750332 100.999914,579.224141 100.999914,574.87535 L100.999914,563.625377 C100.999914,560.638476 98.1508914,558.553757 94.1451484,557.281818 L100.473258,553.328809 C100.749083,553.144376 100.972929,552.725455 100.972929,552.393669 C100.972929,551.772668 100.468932,551.268671 99.8479317,551.268671 C99.6803906,551.268671 99.4269504,551.337061 99.2822059,551.421244 L91.1336657,556.512571 C88.5680209,556.000678 85.7519571,555.750396 82.9999571,555.750396 C74.3304602,555.750396 65,558.211328 65,563.625377 L65,574.87535 C65,579.224141 73.0592078,582.750332 82.9999571,582.750332 Z M82.9999571,569.250364 C74.3016212,569.250364 67.2499946,566.731754 67.2499946,563.625377 C67.2499946,560.519 74.3016212,558.000391 82.9999571,558.000391 L83.0207624,558.000391 C84.4651864,558.000391 86.8007369,558.145616 88.2340373,558.324555 L81.2794335,562.671217 C81.0036087,562.855649 80.7797628,563.274639 80.7797628,563.606426 C80.7797628,564.227426 81.2837594,564.731423 81.9047601,564.731423 C82.0723012,564.731423 82.3257415,564.663033 82.470486,564.578782 L91.5485359,558.904632 C95.8783749,559.907269 98.7499195,561.644684 98.7499195,563.625377 C98.7499195,566.731754 91.698293,569.250364 82.9999571,569.250364 Z M71.7499839,578.634245 C68.875624,577.500802 67.2499946,576.052395 67.2499946,574.87535 L67.2499946,567.697175 C68.4122767,568.611236 69.9605213,569.355146 71.7499839,569.933094 L71.7499839,578.634245 Z M94.2499303,578.634245 L94.2499303,569.933094 C96.0393929,569.355146 97.5876375,568.611922 98.7499195,567.697175 L98.7499195,574.87535 C98.7499195,576.052395 97.1242902,577.500802 94.2499303,578.634245 Z M81.8749598,580.475755 C78.8417105,580.392053 76.1846047,579.983569 73.9999785,579.378841 L73.9999785,570.546198 C76.4503359,571.108697 79.1693083,571.413841 81.8749598,571.479965 L81.8749598,580.475755 Z M84.1249544,580.475755 L84.1249544,571.479965 C86.8306059,571.413841 89.5495783,571.107323 91.9999356,570.546198 L91.9999356,579.378841 C89.8153095,579.979998 87.1582037,580.392053 84.1249544,580.475755 Z" id="drum"></path>
        </g>
    </g>
</svg>