<?xml version="1.0" encoding="UTF-8"?>
<svg width="27px" height="36px" viewBox="0 0 27 36" version="1.1" xmlns="http://www.w3.org/2000/svg" xmlns:xlink="http://www.w3.org/1999/xlink">
    <title>ear</title>
    <g id="webpages" stroke="none" stroke-width="1" fill="none" fill-rule="evenodd">
        <g id="Mobile-Copy" transform="translate(-224.000000, -439.000000)" fill="#1A1A1A" fill-rule="nonzero">
            <path d="M234.124976,475.000326 C239.716935,475.000326 244.249952,470.467309 244.249952,464.87535 L244.249952,464.179231 C248.280963,461.844161 250.999936,457.493929 250.999936,452.50038 C250.999936,445.044457 244.95589,439.000412 237.499968,439.000412 C230.044045,439.000412 224,445.044457 224,452.50038 L224,464.87535 C224,470.467309 228.533017,475.000326 234.124976,475.000326 Z M234.124976,472.750332 C229.782503,472.750332 226.249995,469.217823 226.249995,464.87535 L226.249995,452.50038 C226.249995,446.297445 231.297033,441.250407 237.499968,441.250407 C243.702903,441.250407 248.749941,446.297445 248.749941,452.50038 C248.749941,456.492733 246.593467,460.221347 243.122139,462.232321 L241.999957,462.88271 L241.999957,464.87535 C241.999957,469.217823 238.467449,472.750332 234.124976,472.750332 Z M235.249973,463.750353 C237.730611,463.750353 239.749962,461.732375 239.749962,459.250364 C239.749962,456.768352 237.730611,454.750374 235.249973,454.750374 C234.008246,454.750374 232.999979,453.740665 232.999979,452.50038 C232.999979,450.018368 235.01933,448.000391 237.499968,448.000391 C239.980606,448.000391 241.999957,450.018368 241.999957,452.50038 L241.999957,454.187876 C241.999957,454.498651 242.251681,454.750374 242.562456,454.750374 L243.687453,454.750374 C243.998228,454.750374 244.249952,454.498651 244.249952,454.187876 L244.249952,452.50038 C244.249952,448.778015 241.222333,445.750396 237.499968,445.750396 C233.777603,445.750396 230.749984,448.778015 230.749984,452.50038 C230.749984,454.982391 232.769335,457.000369 235.249973,457.000369 C236.4917,457.000369 237.499968,458.010079 237.499968,459.250364 C237.499968,460.490649 236.4917,461.500358 235.249973,461.500358 L233.562477,461.500358 C233.251702,461.500358 232.999979,461.752082 232.999979,462.062857 L232.999979,463.187854 C232.999979,463.498629 233.251702,463.750353 233.562477,463.750353 L235.249973,463.750353 Z" id="ear"></path>
        </g>
    </g>
</svg>