<?xml version="1.0" encoding="UTF-8"?>
<svg width="45px" height="32px" viewBox="0 0 45 32" version="1.1" xmlns="http://www.w3.org/2000/svg" xmlns:xlink="http://www.w3.org/1999/xlink">
    <title>barbell</title>
    <g id="webpages" stroke="none" stroke-width="1" fill="none" fill-rule="evenodd">
        <g id="Mobile-Copy" transform="translate(-215.000000, -553.000000)" fill="#1A1A1A" fill-rule="nonzero">
            <path d="M229.624965,584.750332 C231.488242,584.750332 232.999957,583.238616 232.999957,581.37534 L232.999957,570.125366 L241.999936,570.125366 L241.999936,581.37534 C241.999936,583.238616 243.511651,584.750332 245.374928,584.750332 L247.624922,584.750332 C249.488199,584.750332 250.999914,583.238616 250.999914,581.37534 L250.999914,580.046409 C251.351476,580.173026 251.73119,580.250342 252.124911,580.250342 L254.374906,580.250342 C256.238183,580.250342 257.749898,578.738627 257.749898,576.87535 L257.749898,570.125366 L259.437394,570.125366 C259.746796,570.125366 259.999893,569.872269 259.999893,569.562868 L259.999893,568.43787 C259.999893,568.128469 259.746796,567.875372 259.437394,567.875372 L257.749898,567.875372 L257.749898,561.125388 C257.749898,559.262111 256.238183,557.750396 254.374906,557.750396 L252.124911,557.750396 C251.73119,557.750396 251.351476,557.834784 250.999914,557.954329 L250.999914,556.625399 C250.999914,554.762122 249.488199,553.250407 247.624922,553.250407 L245.374928,553.250407 C243.511651,553.250407 241.999936,554.762122 241.999936,556.625399 L241.999936,567.875372 L232.999957,567.875372 L232.999957,556.625399 C232.999957,554.762122 231.488242,553.250407 229.624965,553.250407 L227.37497,553.250407 C225.511694,553.250407 223.999979,554.762122 223.999979,556.625399 L223.999979,557.954329 C223.648417,557.827712 223.268703,557.750396 222.874981,557.750396 L220.624987,557.750396 C218.76171,557.750396 217.249995,559.262111 217.249995,561.125388 L217.249995,567.875372 L215.562499,567.875372 C215.253097,567.875372 215,568.128469 215,568.43787 L215,569.562868 C215,569.872269 215.253097,570.125366 215.562499,570.125366 L217.249995,570.125366 L217.249995,576.87535 C217.249995,578.738627 218.76171,580.250342 220.624987,580.250342 L222.874981,580.250342 C223.268703,580.250342 223.648417,580.165954 223.999979,580.046409 L223.999979,581.37534 C223.999979,583.238616 225.511694,584.750332 227.37497,584.750332 L229.624965,584.750332 Z M229.624965,582.500337 L227.37497,582.500337 C226.756236,582.500337 226.249973,581.994074 226.249973,581.37534 L226.249973,556.625399 C226.249973,556.006664 226.756236,555.500401 227.37497,555.500401 L229.624965,555.500401 C230.2437,555.500401 230.749962,556.006664 230.749962,556.625399 L230.749962,581.37534 C230.749962,581.994074 230.2437,582.500337 229.624965,582.500337 Z M247.624922,582.500337 L245.374928,582.500337 C244.756193,582.500337 244.24993,581.994074 244.24993,581.37534 L244.24993,556.625399 C244.24993,556.006664 244.756193,555.500401 245.374928,555.500401 L247.624922,555.500401 C248.243657,555.500401 248.74992,556.006664 248.74992,556.625399 L248.74992,581.37534 C248.74992,581.994074 248.243657,582.500337 247.624922,582.500337 Z M222.874981,578.000348 L220.624987,578.000348 C220.006252,578.000348 219.499989,577.494085 219.499989,576.87535 L219.499989,561.125388 C219.499989,560.506653 220.006252,560.000391 220.624987,560.000391 L222.874981,560.000391 C223.493716,560.000391 223.999979,560.506653 223.999979,561.125388 L223.999979,576.87535 C223.999979,577.494085 223.493716,578.000348 222.874981,578.000348 Z M254.374906,578.000348 L252.124911,578.000348 C251.506177,578.000348 250.999914,577.494085 250.999914,576.87535 L250.999914,561.125388 C250.999914,560.506653 251.506177,560.000391 252.124911,560.000391 L254.374906,560.000391 C254.993641,560.000391 255.499903,560.506653 255.499903,561.125388 L255.499903,576.87535 C255.499903,577.494085 254.993641,578.000348 254.374906,578.000348 Z" id="barbell"></path>
        </g>
    </g>
</svg>