<?xml version="1.0" encoding="UTF-8"?>
<svg width="27px" height="36px" viewBox="0 0 27 36" version="1.1" xmlns="http://www.w3.org/2000/svg" xmlns:xlink="http://www.w3.org/1999/xlink">
    <title>mp3-player</title>
    <g id="webpages" stroke="none" stroke-width="1" fill="none" fill-rule="evenodd">
        <g id="Mobile-Copy" transform="translate(-148.000000, -549.000000)" fill="#1A1A1A" fill-rule="nonzero">
            <path d="M171.624944,585.000326 C173.487946,585.000326 174.999936,583.488336 174.999936,581.625334 L174.999936,552.375404 C174.999936,550.512402 173.487946,549.000412 171.624944,549.000412 L151.374992,549.000412 C149.51199,549.000412 148,550.512402 148,552.375404 L148,581.625334 C148,583.488336 149.51199,585.000326 151.374992,585.000326 L171.624944,585.000326 Z M171.624944,582.750332 L151.374992,582.750332 C150.753991,582.750332 150.249995,582.246335 150.249995,581.625334 L150.249995,552.375404 C150.249995,551.754403 150.753991,551.250407 151.374992,551.250407 L171.624944,551.250407 C172.245944,551.250407 172.749941,551.754403 172.749941,552.375404 L172.749941,581.625334 C172.749941,582.246335 172.245944,582.750332 171.624944,582.750332 Z M170.499946,562.50038 L170.499946,553.500401 L152.499989,553.500401 L152.499989,562.50038 L170.499946,562.50038 Z M168.249952,560.250385 L154.749984,560.250385 L154.749984,555.750396 L168.249952,555.750396 L168.249952,560.250385 Z M161.499968,580.500337 C165.846973,580.500337 169.374949,576.972361 169.374949,572.625356 C169.369525,568.283775 165.841548,564.755799 161.499968,564.750374 C157.152963,564.750374 153.624987,568.278351 153.624987,572.625356 C153.624987,576.972361 157.152963,580.500337 161.499968,580.500337 Z M161.499968,578.250342 C158.394964,578.250342 155.874981,575.730359 155.874981,572.625356 C155.874981,569.520352 158.394964,567.000369 161.499968,567.000369 C164.604971,567.000369 167.124954,569.520352 167.124954,572.625356 C167.121865,575.727269 164.601881,578.247252 161.499968,578.250342 Z M161.499968,574.312852 C162.431469,574.312852 163.187464,573.556857 163.187464,572.625356 C163.187464,571.693855 162.431469,570.93786 161.499968,570.93786 C160.568467,570.93786 159.812472,571.693855 159.812472,572.625356 C159.812472,573.556857 160.568467,574.312852 161.499968,574.312852 Z" id="mp3-player"></path>
        </g>
    </g>
</svg>